<?xml version="1.0" standalone="no"?>
<!DOCTYPE svg PUBLIC "-//W3C//DTD SVG 20010904//EN"
 "http://www.w3.org/TR/2001/REC-SVG-20010904/DTD/svg10.dtd">
<svg version="1.0" xmlns="http://www.w3.org/2000/svg"
 width="1024.000000pt" height="1024.000000pt" viewBox="0 0 1024.000000 1024.000000"
 preserveAspectRatio="xMidYMid meet">

<g transform="translate(0.000000,1024.000000) scale(0.100000,-0.100000)"
fill="#000000" stroke="none">
<path d="M4430 8420 c-499 -48 -892 -190 -1185 -430 -338 -276 -583 -734 -670
-1250 -14 -82 -20 -98 -43 -115 -117 -86 -203 -205 -250 -346 -103 -311 -44
-616 158 -820 87 -88 170 -134 273 -152 l67 -11 16 -51 c9 -27 38 -95 64 -150
91 -193 191 -336 352 -501 59 -61 108 -113 108 -116 0 -10 -127 -80 -218 -121
-137 -63 -247 -88 -407 -94 -155 -6 -255 11 -368 61 -116 51 -246 158 -318
262 l-32 47 39 30 c77 60 221 213 254 271 28 50 34 72 38 135 4 69 1 81 -25
131 -37 69 -100 111 -177 118 -48 4 -125 -7 -167 -23 -14 -5 -17 16 -22 197
-7 286 -34 400 -114 489 -94 104 -234 106 -333 4 l-34 -35 -29 53 c-38 68
-107 138 -165 168 -71 36 -162 34 -227 -6 -64 -39 -101 -94 -121 -177 l-17
-68 -35 0 c-20 0 -55 -9 -79 -21 -158 -77 -185 -315 -77 -692 63 -221 143
-394 259 -562 34 -49 98 -149 142 -222 107 -176 203 -301 337 -440 231 -241
453 -386 727 -478 178 -59 321 -78 539 -72 107 3 222 12 273 21 78 15 222 53
271 72 17 6 18 3 12 -42 -9 -68 -35 -692 -38 -906 -4 -235 -10 -226 173 -250
283 -36 479 -58 619 -68 187 -13 729 -13 991 0 397 20 779 69 819 105 39 36
45 106 45 567 0 289 3 434 10 429 6 -5 71 -57 145 -116 74 -60 137 -110 139
-111 2 -2 -8 -70 -22 -151 -51 -291 -47 -332 31 -413 68 -70 111 -80 331 -80
97 0 545 -5 996 -11 603 -9 831 -9 860 -1 70 20 132 67 176 134 47 73 53 78
99 78 19 0 64 13 98 30 176 83 302 333 305 605 1 91 -3 122 -22 178 -30 88
-102 169 -172 194 -40 14 -47 21 -44 38 7 26 62 375 70 442 13 105 -46 217
-138 262 -41 20 -57 20 -1107 23 l-1065 3 -54 -30 c-53 -29 -102 -84 -123
-135 -5 -14 -16 -61 -24 -105 -25 -144 -12 -140 -122 -33 -107 103 -167 155
-254 215 l-57 40 79 62 c312 246 553 657 639 1091 56 283 56 611 0 895 -41
206 -116 418 -210 592 -35 65 -59 127 -79 206 -137 537 -544 942 -1100 1092
-228 61 -563 88 -810 65z m547 -515 c201 -27 376 -80 545 -166 109 -57 241
-146 233 -158 -2 -5 1 -8 9 -7 14 1 144 -103 145 -117 1 -5 -4 -5 -11 -1 -7 4
-8 3 -4 -5 4 -6 11 -9 15 -6 13 8 123 -113 115 -126 -4 -7 -3 -9 4 -5 24 14
176 -212 268 -399 268 -545 273 -1274 14 -1810 -70 -145 -152 -259 -275 -381
-213 -212 -395 -322 -711 -430 -487 -166 -1116 -132 -1572 86 -69 33 -101 53
-96 61 4 8 3 9 -4 5 -16 -10 -58 14 -169 98 -230 173 -418 427 -529 714 -23
62 -26 75 -13 83 8 5 19 9 24 8 15 0 67 -78 60 -90 -4 -5 -2 -8 3 -7 14 4 173
-168 164 -177 -4 -5 -2 -5 5 -1 7 4 35 -12 68 -38 30 -25 64 -50 75 -56 11 -6
17 -16 14 -22 -4 -6 -3 -8 3 -5 5 3 49 -14 98 -38 48 -24 116 -54 151 -65 55
-19 64 -25 64 -45 0 -14 14 -40 31 -60 84 -95 273 -151 419 -125 148 27 230
114 230 242 -1 148 -126 257 -332 289 -136 21 -237 -7 -303 -84 l-36 -41 -71
24 c-152 52 -336 190 -444 333 -25 34 -48 67 -51 73 -2 5 17 41 43 80 72 106
108 199 130 334 46 281 -33 544 -212 710 -68 63 -67 40 -17 220 122 442 359
744 732 930 305 152 801 225 1188 175z m-3804 -1886 c67 -35 117 -119 180
-305 52 -152 62 -169 99 -185 23 -9 33 -8 53 5 24 16 25 19 25 139 0 107 3
128 23 167 37 75 110 80 151 11 39 -67 48 -136 54 -421 6 -242 9 -279 25 -303
10 -16 24 -30 32 -33 8 -3 55 13 105 36 116 54 176 58 217 18 41 -41 38 -90
-10 -163 -49 -73 -145 -168 -241 -240 -62 -46 -76 -61 -76 -83 0 -71 198 -309
332 -398 341 -228 792 -200 1242 76 l65 39 83 -50 c294 -177 598 -260 1048
-284 116 -7 380 7 500 26 175 27 355 89 566 195 l142 70 83 -58 c104 -72 272
-226 263 -240 -4 -6 -2 -8 4 -4 16 10 142 -134 142 -162 0 -13 -23 -144 -50
-290 -28 -147 -51 -273 -53 -281 -1 -8 -33 12 -85 53 -48 39 -80 72 -76 78 4
7 2 8 -5 4 -6 -4 -42 18 -84 53 l-73 61 -12 108 c-13 126 -22 155 -56 177 -31
20 -61 12 -83 -21 -14 -22 -14 -41 -4 -172 29 -370 35 -1061 11 -1217 -4 -27
-4 -57 1 -66 7 -14 -8 -18 -114 -33 -371 -50 -582 -61 -1122 -61 -414 1 -494
4 -671 23 -200 22 -464 58 -468 64 -3 6 41 1052 50 1155 l6 72 73 40 c116 64
138 111 81 169 l-23 24 -124 -55 c-161 -71 -241 -99 -369 -130 -425 -104 -861
-31 -1206 202 -251 169 -448 395 -689 792 -27 45 -71 116 -97 158 -154 247
-288 734 -248 901 8 34 20 56 37 67 22 15 26 15 51 -4 15 -11 45 -56 67 -100
54 -107 88 -150 126 -158 24 -6 36 -3 52 13 27 28 25 77 -9 172 -15 41 -37
104 -50 140 -27 75 -29 108 -10 153 26 63 67 82 119 56z m6724 -1699 l755 0
30 -31 c31 -30 31 -30 25 -117 -5 -74 -57 -393 -73 -443 -2 -10 -20 -20 -39
-23 -58 -11 -169 -73 -222 -124 -92 -88 -132 -213 -103 -317 12 -43 11 -49
-19 -115 -66 -143 -49 -283 45 -370 25 -23 61 -48 80 -56 19 -8 34 -18 34 -23
0 -22 -59 -70 -94 -76 -20 -4 -484 -3 -1031 1 l-995 9 -27 28 c-25 24 -28 34
-26 85 1 31 29 208 62 392 33 184 84 472 114 640 30 168 60 338 67 377 14 84
41 130 90 156 32 17 56 18 304 13 148 -3 609 -6 1023 -6z m883 -752 c31 -16
54 -38 75 -72 29 -48 30 -53 30 -175 0 -104 -4 -139 -24 -201 -30 -97 -63
-161 -109 -212 -95 -105 -259 -119 -355 -29 -36 34 -41 44 -45 95 -6 71 15
130 63 176 41 39 44 69 13 112 -12 17 -23 52 -26 79 -8 80 46 152 155 208 88
44 160 50 223 19z"/>
<path d="M4508 7893 c6 -2 18 -2 25 0 6 3 1 5 -13 5 -14 0 -19 -2 -12 -5z"/>
<path d="M4883 7893 c9 -2 23 -2 30 0 6 3 -1 5 -18 5 -16 0 -22 -2 -12 -5z"/>
<path d="M4205 7850 c-3 -5 1 -10 10 -10 9 0 13 5 10 10 -3 6 -8 10 -10 10 -2
0 -7 -4 -10 -10z"/>
<path d="M4165 7709 c-4 -6 -5 -12 -2 -15 2 -3 7 2 10 11 7 17 1 20 -8 4z"/>
<path d="M5499 6999 c-77 -34 -98 -99 -44 -135 17 -11 38 -13 87 -8 81 8 161
-8 257 -52 85 -39 101 -41 126 -14 54 60 -28 161 -169 210 -80 27 -194 27
-257 -1z"/>
<path d="M4262 6999 c-106 -20 -201 -85 -243 -164 -22 -42 -23 -47 -9 -72 9
-16 23 -29 32 -31 9 -2 44 15 77 37 83 53 147 73 258 80 75 5 96 10 113 27 43
42 -2 103 -91 123 -51 12 -77 12 -137 0z"/>
<path d="M3056 6733 c-4 -9 -3 -20 1 -24 4 -4 9 3 9 17 2 28 -1 31 -10 7z"/>
<path d="M3030 6638 c0 -4 4 -8 9 -8 6 0 12 4 15 8 3 5 -1 9 -9 9 -8 0 -15 -4
-15 -9z"/>
<path d="M3346 6627 c3 -10 9 -15 12 -12 3 3 0 11 -7 18 -10 9 -11 8 -5 -6z"/>
<path d="M4234 6435 c-56 -29 -58 -29 -48 -13 5 7 3 8 -5 4 -7 -5 -10 -10 -7
-13 3 -3 -9 -26 -25 -50 -49 -71 -72 -147 -72 -238 0 -97 13 -148 56 -212 86
-129 279 -136 377 -13 58 74 75 125 75 235 0 87 -3 107 -27 157 -47 102 -141
168 -238 168 -20 0 -59 -11 -86 -25z"/>
<path d="M5542 6433 c-53 -29 -94 -74 -121 -133 -23 -49 -26 -67 -26 -170 0
-99 3 -122 23 -165 82 -178 277 -210 393 -63 117 149 86 411 -62 514 -54 37
-156 45 -207 17z"/>
<path d="M6461 6254 c0 -11 3 -14 6 -6 3 7 2 16 -1 19 -3 4 -6 -2 -5 -13z"/>
<path d="M4052 6130 c0 -14 2 -19 5 -12 2 6 2 18 0 25 -3 6 -5 1 -5 -13z"/>
<path d="M6472 5805 c0 -16 2 -22 5 -12 2 9 2 23 0 30 -3 6 -5 -1 -5 -18z"/>
<path d="M6451 5634 c0 -11 3 -14 6 -6 3 7 2 16 -1 19 -3 4 -6 -2 -5 -13z"/>
<path d="M4423 5503 c-24 -26 -25 -33 -20 -101 16 -208 209 -408 442 -457 39
-8 88 -15 110 -15 69 0 177 28 255 66 94 47 200 150 248 243 38 76 40 104 7
136 -32 33 -55 31 -107 -5 -69 -48 -151 -63 -303 -57 -101 4 -150 11 -220 31
-114 34 -225 89 -292 143 -62 50 -85 53 -120 16z"/>
<path d="M4075 5510 c3 -5 8 -10 11 -10 2 0 4 5 4 10 0 6 -5 10 -11 10 -5 0
-7 -4 -4 -10z"/>
<path d="M4375 5451 c-3 -5 -2 -12 3 -15 5 -3 9 1 9 9 0 17 -3 19 -12 6z"/>
<path d="M5290 5360 c-8 -5 -10 -10 -5 -10 6 0 17 5 25 10 8 5 11 10 5 10 -5
0 -17 -5 -25 -10z"/>
<path d="M2953 5325 c-3 -9 -3 -19 1 -22 3 -4 6 -1 6 6 0 7 4 9 10 6 6 -3 7 1
4 9 -8 20 -13 20 -21 1z"/>
<path d="M6272 5075 c-17 -37 -14 -45 4 -12 9 16 14 31 11 33 -2 2 -9 -7 -15
-21z"/>
<path d="M3066 5047 c3 -10 9 -15 12 -12 3 3 0 11 -7 18 -10 9 -11 8 -5 -6z"/>
<path d="M4440 4816 c0 -2 8 -10 18 -17 15 -13 16 -12 3 4 -13 16 -21 21 -21
13z"/>
<path d="M3700 4510 c0 -5 5 -10 11 -10 5 0 7 5 4 10 -3 6 -8 10 -11 10 -2 0
-4 -4 -4 -10z"/>
<path d="M5360 4330 c-9 -6 -10 -10 -3 -10 6 0 15 5 18 10 8 12 4 12 -15 0z"/>
<path d="M848 5733 c7 -3 16 -2 19 1 4 3 -2 6 -13 5 -11 0 -14 -3 -6 -6z"/>
<path d="M801 5524 c0 -11 3 -14 6 -6 3 7 2 16 -1 19 -3 4 -6 -2 -5 -13z"/>
<path d="M1478 5503 c7 -3 16 -2 19 1 4 3 -2 6 -13 5 -11 0 -14 -3 -6 -6z"/>
<path d="M1741 5434 c0 -11 3 -14 6 -6 3 7 2 16 -1 19 -3 4 -6 -2 -5 -13z"/>
<path d="M929 5063 c-13 -16 -12 -17 4 -4 9 7 17 15 17 17 0 8 -8 3 -21 -13z"/>
<path d="M1818 5073 c6 -2 18 -2 25 0 6 3 1 5 -13 5 -14 0 -19 -2 -12 -5z"/>
<path d="M2016 5058 c3 -5 10 -6 15 -3 13 9 11 12 -6 12 -8 0 -12 -4 -9 -9z"/>
<path d="M2141 5054 c0 -11 3 -14 6 -6 3 7 2 16 -1 19 -3 4 -6 -2 -5 -13z"/>
<path d="M5943 4195 c0 -8 4 -12 9 -9 5 3 6 10 3 15 -9 13 -12 11 -12 -6z"/>
<path d="M2738 4093 c7 -3 16 -2 19 1 4 3 -2 6 -13 5 -11 0 -14 -3 -6 -6z"/>
<path d="M4628 4023 c7 -3 16 -2 19 1 4 3 -2 6 -13 5 -11 0 -14 -3 -6 -6z"/>
<path d="M4758 4023 c7 -3 16 -2 19 1 4 3 -2 6 -13 5 -11 0 -14 -3 -6 -6z"/>
<path d="M5866 3838 c3 -5 10 -6 15 -3 13 9 11 12 -6 12 -8 0 -12 -4 -9 -9z"/>
<path d="M5671 3794 c0 -11 3 -14 6 -6 3 7 2 16 -1 19 -3 4 -6 -2 -5 -13z"/>
<path d="M5671 3724 c0 -11 3 -14 6 -6 3 7 2 16 -1 19 -3 4 -6 -2 -5 -13z"/>
<path d="M6196 3557 c3 -10 9 -15 12 -12 3 3 0 11 -7 18 -10 9 -11 8 -5 -6z"/>
<path d="M3402 3515 c0 -16 2 -22 5 -12 2 9 2 23 0 30 -3 6 -5 -1 -5 -18z"/>
<path d="M3916 3482 c-3 -5 1 -9 9 -9 8 0 12 4 9 9 -3 4 -7 8 -9 8 -2 0 -6 -4
-9 -8z"/>
<path d="M3392 3370 c0 -14 2 -19 5 -12 2 6 2 18 0 25 -3 6 -5 1 -5 -13z"/>
<path d="M3392 3285 c0 -16 2 -22 5 -12 2 9 2 23 0 30 -3 6 -5 -1 -5 -18z"/>
<path d="M5701 3204 c0 -11 3 -14 6 -6 3 7 2 16 -1 19 -3 4 -6 -2 -5 -13z"/>
<path d="M5701 3164 c0 -11 3 -14 6 -6 3 7 2 16 -1 19 -3 4 -6 -2 -5 -13z"/>
<path d="M5701 3064 c0 -11 3 -14 6 -6 3 7 2 16 -1 19 -3 4 -6 -2 -5 -13z"/>
<path d="M3371 2874 c0 -11 3 -14 6 -6 3 7 2 16 -1 19 -3 4 -6 -2 -5 -13z"/>
<path d="M5701 2714 c0 -11 3 -14 6 -6 3 7 2 16 -1 19 -3 4 -6 -2 -5 -13z"/>
<path d="M3362 2685 c0 -16 2 -22 5 -12 2 9 2 23 0 30 -3 6 -5 -1 -5 -18z"/>
<path d="M4804 2660 c0 -13 4 -16 10 -10 7 7 7 13 0 20 -6 6 -10 3 -10 -10z"/>
<path d="M3352 2475 c0 -16 2 -22 5 -12 2 9 2 23 0 30 -3 6 -5 -1 -5 -18z"/>
<path d="M5606 2417 c3 -10 9 -15 12 -12 3 3 0 11 -7 18 -10 9 -11 8 -5 -6z"/>
<path d="M3352 2380 c0 -14 2 -19 5 -12 2 6 2 18 0 25 -3 6 -5 1 -5 -13z"/>
<path d="M8840 3471 c0 -6 4 -13 10 -16 6 -3 7 1 4 9 -7 18 -14 21 -14 7z"/>
<path d="M8825 3079 c-4 -6 -5 -12 -2 -15 2 -3 7 2 10 11 7 17 1 20 -8 4z"/>
<path d="M8538 2833 c6 -2 18 -2 25 0 6 3 1 5 -13 5 -14 0 -19 -2 -12 -5z"/>
<path d="M2444 1819 c-222 -26 -391 -170 -466 -394 -19 -58 -23 -91 -23 -190
0 -109 2 -125 26 -175 69 -146 230 -223 428 -206 259 24 454 202 498 455 22
125 14 250 -21 323 -68 144 -231 213 -442 187z m161 -213 c50 -38 69 -85 68
-171 0 -125 -36 -235 -100 -306 -51 -56 -111 -83 -190 -82 -126 1 -183 64
-183 202 0 133 43 251 120 326 50 49 100 66 181 62 55 -2 73 -7 104 -31z"/>
<path d="M1486 1812 c-11 -18 -176 -895 -176 -934 0 -17 21 -18 294 -18 l294
0 21 93 c12 50 21 95 21 100 0 4 -81 7 -180 7 -125 0 -180 3 -180 11 0 6 29
163 65 348 35 185 66 350 67 366 l3 30 -112 3 c-61 1 -114 -1 -117 -6z"/>
<path d="M3086 1809 c-2 -8 -43 -214 -91 -459 -47 -245 -89 -455 -92 -468 l-5
-23 118 3 119 3 34 174 34 173 64 -4 c92 -6 110 -26 129 -149 8 -52 21 -118
30 -146 l15 -53 120 0 c111 0 121 2 115 17 -4 10 -20 85 -37 168 -23 116 -36
161 -60 199 -16 27 -28 49 -27 50 2 1 20 11 42 21 59 31 122 91 146 140 30 61
26 198 -6 241 -36 49 -87 83 -148 98 -86 23 -494 35 -500 15z m393 -193 c91
-48 44 -173 -78 -210 -56 -16 -161 -22 -161 -8 0 17 42 227 47 236 9 14 156 0
192 -18z"/>
<path d="M3950 1798 c-5 -13 -35 -156 -66 -318 -30 -162 -69 -360 -85 -439
-16 -79 -29 -152 -29 -163 0 -17 16 -18 319 -18 l320 0 11 58 c6 31 16 73 21
92 5 19 9 38 9 43 0 4 -90 7 -200 7 -110 0 -200 3 -200 8 0 4 7 44 16 89 l17
83 176 2 176 3 21 98 21 97 -180 0 c-144 0 -178 3 -174 13 3 7 11 48 17 90
l13 77 193 0 c107 0 194 2 194 4 0 5 27 139 35 174 l5 22 -310 0 -310 0 -10
-22z"/>
<path d="M4705 1808 c-12 -37 -185 -903 -185 -928 0 -20 5 -21 107 -18 l107 3
60 308 c33 169 62 307 65 307 4 0 56 -139 117 -308 l111 -307 131 -3 c118 -2
131 -1 136 15 6 19 186 926 186 937 0 3 -49 6 -110 6 -106 0 -110 -1 -114 -22
-3 -13 -29 -149 -57 -303 -29 -154 -55 -283 -58 -287 -6 -7 -31 58 -187 485
l-46 127 -129 0 c-95 0 -131 -3 -134 -12z"/>
<path d="M5624 1793 c-3 -16 -12 -53 -20 -84 -24 -97 -40 -89 186 -89 182 0
222 -5 190 -25 -5 -3 -122 -134 -261 -291 l-252 -286 -18 -77 c-10 -42 -18
-77 -19 -78 0 -2 169 -3 375 -3 l375 0 5 23 c8 33 35 168 35 172 0 3 -94 6
-209 7 l-209 3 210 235 c115 129 234 263 265 297 50 56 57 70 72 143 l18 80
-368 0 -369 0 -6 -27z"/>
<path d="M6465 1808 c-2 -7 -43 -213 -90 -458 -48 -245 -89 -455 -92 -467 l-5
-23 321 0 c177 0 321 2 321 5 0 9 30 158 36 178 5 16 -9 17 -190 17 -220 0
-203 -7 -186 82 22 111 -3 98 194 98 l175 0 11 58 c6 31 16 73 21 92 5 19 9
38 9 43 0 4 -79 7 -176 7 l-176 0 5 23 c3 12 11 52 17 89 l12 68 191 2 191 3
18 75 c9 41 17 85 18 98 l0 22 -310 0 c-240 0 -312 -3 -315 -12z"/>
<path d="M7159 1818 c0 -2 -11 -45 -23 -95 l-23 -93 123 0 c104 0 124 -2 124
-15 0 -12 -114 -625 -136 -727 l-6 -28 116 0 c112 0 117 1 125 23 4 12 23 101
41 197 18 96 49 258 69 360 l37 185 125 3 125 3 22 87 c12 48 22 90 22 95 0 6
-739 11 -741 5z"/>
<path d="M7955 1808 c-3 -7 -13 -50 -24 -95 l-18 -83 129 0 c130 0 130 0 125
-22 -14 -55 -137 -714 -137 -730 0 -17 9 -18 117 -16 l117 3 22 110 c12 61 45
232 74 382 l52 272 126 3 126 3 18 75 c9 41 17 83 18 93 0 16 -24 17 -370 17
-288 0 -372 -3 -375 -12z"/>
<path d="M8765 1808 c-5 -15 -161 -841 -171 -906 l-7 -43 119 3 118 3 43 220
c104 545 135 701 139 718 5 15 -5 17 -116 17 -88 0 -122 -3 -125 -12z"/>
</g>
</svg>
